# xmcd
#
# Track frame offsets:
#	150
#	62448
#	126215
#	167924
#	195432
#	225015
#	250433
#	296499
#	331059
#
# Disc length: 4715 seconds
#
# Revision: 1
# Processed by: cddbd v1.5.2PL0 Copyright (c) Steve Scherf et al.
# Submitted via: audiograbber 1.83.01
#
DISCID=72126909
DTITLE=Grateful Dead - 79-11-30 Stanley Theatre, Pittsburgh PA
DYEAR=1900
DGENRE=
TTITLE0=Terrapin Station
TTITLE1=Playing In The Band
TTITLE2=Drums
TTITLE3=Space
TTITLE4=Lost Sailor
TTITLE5=Saint Of Circumstance
TTITLE6=Wharf Rat
TTITLE7=Good Lovin'
TTITLE8=Don't Ease Me In
EXTD=
EXTT0=
EXTT1=
EXTT2=
EXTT3=
EXTT4=
EXTT5=
EXTT6=
EXTT7=
EXTT8=
PLAYORDER=
